<?xml version="1.0" encoding="utf-8"?>
<!-- Svg Vector Icons : http://www.onlinewebfonts.com/icon -->
<!DOCTYPE svg PUBLIC "-//W3C//DTD SVG 1.1//EN" "http://www.w3.org/Graphics/SVG/1.1/DTD/svg11.dtd">
<svg version="1.1" xmlns="http://www.w3.org/2000/svg" xmlns:xlink="http://www.w3.org/1999/xlink" x="0px" y="0px" viewBox="0 0 256 256" enable-background="new 0 0 256 256" xml:space="preserve">
<metadata> Svg Vector Icons : http://www.onlinewebfonts.com/icon </metadata>
<g><g><g><path d="M123.7,17.7c-2.9,0.7-7.1,3.2-9.1,5.4c-1,1.1-2.5,3.4-3.3,5.1c-1.3,2.8-1.5,3.5-1.5,7.5c0,3.8,0.2,4.8,1.2,7.1c0.7,1.5,1.9,3.6,2.8,4.6c1.7,2.1,6.2,5.2,8.3,5.7c1.5,0.3,1.5,0.8,0,3.7c-2.9,5.8-9.4,9.9-25.3,16c-15.5,6-21.8,9.5-27.2,15.1c-3.7,4-6.5,9.3-7.6,14.7c-0.4,2.1-1,3.8-1.3,3.8c-0.3,0-2,0.7-3.7,1.6c-4,2-6.7,4.8-8.6,8.9c-1.3,2.8-1.5,3.5-1.5,7.5c0,4.2,0.1,4.6,1.8,7.9c2.1,4.3,5,7.1,9.3,9c3.4,1.5,3.5,1.8,2.3,6.1c-1.7,6.4-5.6,11.1-15.2,18.4c-9.7,7.3-13.6,11.5-16.7,17.9c-2.8,5.9-4.9,17.3-3.4,18.3c0.5,0.3,0.3,0.4-0.6,0.4c-2,0-7.5,3-9.7,5.4c-1.1,1.2-2.6,3.5-3.4,5.2c-1.3,2.8-1.5,3.5-1.5,7.5c0,4.2,0.1,4.6,1.7,7.9c2.1,4.2,4.8,6.8,9.1,8.8c2.8,1.3,3.5,1.5,7.5,1.5s4.7-0.1,7.5-1.5c4.3-2,7-4.6,9.1-8.8c1.6-3.3,1.7-3.7,1.7-7.9c0-4-0.1-4.7-1.5-7.5c-0.8-1.7-2.3-4-3.4-5.2c-2.1-2.3-7.6-5.3-9.7-5.4c-0.6,0-0.9-0.1-0.6-0.3c0.3-0.1,0.6-1.1,0.6-2.1c0-4.1,1.3-9.3,3.2-13.2c2.5-5,6.1-8.9,14.5-15.2c7.4-5.7,11.9-10,13.9-13.5c0.8-1.3,1.5-2.4,1.6-2.4c0.1,0,0.9,1.1,1.6,2.4c2,3.5,6.6,7.8,13.9,13.5c3.6,2.7,7.9,6.4,9.5,8.1c4.8,5.1,7.3,11,8,18.6c0.2,1.9,0.6,3.6,0.8,3.8c0.3,0.2,0,0.4-0.7,0.4c-2,0-7.5,3-9.7,5.4c-1.1,1.2-2.6,3.5-3.4,5.2c-1.3,2.8-1.5,3.5-1.5,7.5c0,4.2,0.1,4.6,1.7,7.9c2.1,4.2,4.8,6.8,9.1,8.8c2.8,1.3,3.5,1.5,7.5,1.5s4.7-0.1,7.5-1.5c4.3-2,7-4.6,9.1-8.8c1.6-3.3,1.7-3.7,1.7-7.9c0-4-0.1-4.7-1.5-7.5c-0.8-1.7-2.3-4-3.4-5.2c-2.1-2.3-7.6-5.4-9.7-5.4c-0.9,0-1-0.1-0.6-0.4c1.5-1-0.6-12.4-3.4-18.3c-3-6.2-6.7-10.3-15.6-17c-10-7.7-13.3-11.1-15.4-16.3c-0.6-1.5-1.2-3.9-1.4-5.3l-0.3-2.4l3-1.3c4.3-1.9,7.4-4.8,9.5-9c1.7-3.3,1.8-3.7,1.8-7.9c0-4-0.1-4.7-1.5-7.5c-1.9-4.2-4.6-6.9-8.6-8.9c-1.8-0.9-3.5-1.6-3.8-1.6c-1.5,0,1.1-7.9,3.7-11.5c4-5.4,9.9-8.8,26-15.1c11.1-4.3,16.3-6.8,20.3-9.7c2.8-2,6.3-5.5,7.8-7.7l0.8-1.2l2.1,2.9c4.3,5.7,11.6,10,26.8,15.8c9.7,3.7,13,5.2,17.2,7.6c6.4,3.7,10.3,8.5,12.2,14.7c0.9,3.1,0.9,4.2,0.1,4.2c-0.3,0-2.1,0.7-3.8,1.6c-4,2-6.7,4.8-8.6,8.9c-1.3,2.8-1.5,3.5-1.5,7.5c0,4.2,0.1,4.6,1.8,7.9c2.1,4.3,5,7.1,9.3,9c3.4,1.5,3.5,1.8,2.3,6.1c-1.7,6.4-5.6,11.1-15.2,18.4c-9.7,7.3-13.6,11.5-16.7,17.9c-2.8,5.9-4.9,17.3-3.4,18.3c0.5,0.3,0.3,0.4-0.6,0.4c-2,0-7.5,3-9.7,5.4c-1.1,1.2-2.6,3.5-3.4,5.2c-1.3,2.8-1.5,3.5-1.5,7.5c0,4.2,0.1,4.6,1.7,7.9c2.1,4.2,4.8,6.8,9.1,8.8c2.8,1.3,3.5,1.5,7.5,1.5s4.7-0.1,7.5-1.5c4.3-2,7-4.6,9.1-8.8c1.6-3.3,1.7-3.7,1.7-7.9c0-4-0.1-4.7-1.5-7.5c-0.8-1.7-2.3-4-3.4-5.2c-2.1-2.3-7.6-5.3-9.7-5.4c-0.6,0-0.9-0.1-0.6-0.3c0.3-0.1,0.6-1.1,0.6-2.1c0-4.1,1.3-9.3,3.2-13.2c2.5-5,6.1-8.9,14.5-15.2c7.4-5.7,11.9-10,13.9-13.5c0.8-1.3,1.5-2.4,1.6-2.4c0.1,0,0.9,1.1,1.6,2.4c2,3.5,6.7,8,14,13.5c12.5,9.5,16.4,15.5,17.5,26.6c0.2,1.9,0.6,3.6,0.8,3.8s0,0.4-0.7,0.4c-2,0-7.5,3-9.7,5.4c-1.1,1.2-2.6,3.5-3.4,5.2c-1.3,2.8-1.5,3.5-1.5,7.5c0,4.2,0.1,4.6,1.7,7.9c2.1,4.2,4.8,6.8,9.1,8.8c2.8,1.3,3.5,1.5,7.5,1.5s4.7-0.1,7.5-1.5c4.3-2,7-4.6,9.1-8.8c1.6-3.3,1.7-3.7,1.7-7.9c0-4-0.1-4.7-1.5-7.5c-0.8-1.7-2.3-4-3.4-5.2c-2.1-2.3-7.6-5.4-9.7-5.4c-0.9,0-1-0.1-0.6-0.4c1.5-1-0.6-12.4-3.4-18.3c-3-6.2-6.7-10.3-15.6-17c-10-7.7-13.3-11.1-15.4-16.3c-0.6-1.5-1.2-3.9-1.4-5.3l-0.3-2.4l3-1.3c4.3-1.9,7.4-4.8,9.5-9c1.7-3.3,1.8-3.7,1.8-7.9c0-4-0.1-4.7-1.5-7.5c-1.9-4.2-4.6-6.9-8.6-8.9c-1.8-0.9-3.5-1.6-3.7-1.6c-0.3,0-0.7-1.4-1.1-3.1c-1.2-7.3-5-13.7-11.2-18.7c-4.7-3.7-11.2-7.1-22.7-11.5c-11.7-4.4-18.1-7.7-21.7-10.9c-2.8-2.5-5.6-6.6-5.6-8c0-0.4,1.2-1.2,2.9-2c3.7-1.7,7-5,8.8-9c1.3-2.8,1.5-3.5,1.5-7.5c0-4.2-0.1-4.6-1.7-7.9c-3.1-6.3-8.7-10-15.5-10.3C127.1,17.3,124.7,17.4,123.7,17.7z M131.7,25.3c4.1,1.4,7.3,6,7.3,10.4c0,5.8-5.3,11.1-11,11.1c-2.7,0-5.2-1-7.5-3.1c-4.8-4.3-4.9-11.2-0.3-15.7C123.5,24.8,127.6,23.8,131.7,25.3z M68.5,113.8c4.2,1.2,7.8,6.1,7.8,10.5c0,5.8-5.3,11.1-11.1,11.1c-5.8,0-11.1-5.3-11.1-11.1c0-5.7,5.1-10.9,10.8-11C65.9,113.3,67.5,113.5,68.5,113.8z M194.5,113.9c4.1,1.4,7.3,6,7.3,10.4c0,5.8-5.3,11.1-11.1,11.1c-2.7,0-5.6-1.2-7.7-3.3C174.7,123.9,183.5,110.1,194.5,113.9z M32,210c4.1,1.4,7.3,6,7.3,10.4c0,5.8-5.3,11.1-11.1,11.1s-11.1-5.3-11.1-11.1c0-2.8,1.3-5.7,3.4-7.8C23.7,209.5,27.8,208.6,32,210z M105.9,210c4.1,1.4,7.3,6,7.3,10.4c0,5.8-5.3,11.1-11.1,11.1c-5.8,0-11.1-5.3-11.1-11.1c0-2.8,1.3-5.7,3.4-7.8C97.6,209.5,101.7,208.6,105.9,210z M157.6,210c4.1,1.4,7.3,6,7.3,10.4c0,5.8-5.3,11.1-11.1,11.1c-2.7,0-5.6-1.2-7.7-3.3C137.7,219.9,146.5,206.1,157.6,210z M231.5,210c4.1,1.4,7.3,6,7.3,10.4c0,5.8-5.3,11.1-11.1,11.1c-2.7,0-5.6-1.2-7.7-3.3C211.6,219.9,220.4,206.1,231.5,210z"/><path fill="#000000" d="M125.5,33.1c-2.3,2.3-0.7,6.2,2.5,6.2c0.9,0,1.8-0.4,2.5-1.2c0.7-0.7,1.2-1.7,1.2-2.5s-0.4-1.8-1.2-2.5c-0.7-0.7-1.7-1.2-2.5-1.2C127.1,32,126.2,32.4,125.5,33.1z"/><path fill="#000000" d="M62.6,121.8c-2.3,2.3-0.7,6.2,2.5,6.2c1.9,0,3.7-1.8,3.7-3.7c0-1.9-1.8-3.7-3.7-3.7C64.3,120.6,63.3,121.1,62.6,121.8z"/><path fill="#000000" d="M188.3,121.8c-0.7,0.7-1.2,1.7-1.2,2.5s0.4,1.8,1.2,2.5c0.7,0.7,1.7,1.2,2.5,1.2s1.8-0.4,2.5-1.2c0.7-0.7,1.2-1.7,1.2-2.5s-0.4-1.8-1.2-2.5c-0.7-0.7-1.7-1.2-2.5-1.2S189,121.1,188.3,121.8z"/><path fill="#000000" d="M25.7,217.9c-0.7,0.7-1.2,1.7-1.2,2.5c0,0.9,0.4,1.8,1.2,2.5c0.7,0.7,1.7,1.2,2.5,1.2c3.2,0,4.8-4,2.5-6.2c-0.7-0.7-1.7-1.2-2.5-1.2S26.4,217.1,25.7,217.9z"/><path fill="#000000" d="M99.6,217.9c-2.3,2.3-0.7,6.2,2.5,6.2c1.9,0,3.7-1.8,3.7-3.7c0-1.9-1.8-3.7-3.7-3.7C101.3,216.7,100.3,217.1,99.6,217.9z"/><path fill="#000000" d="M151.3,217.9c-2.3,2.3-0.7,6.2,2.5,6.2c1.9,0,3.7-1.8,3.7-3.7c0-1.9-1.8-3.7-3.7-3.7C153,216.7,152,217.1,151.3,217.9z"/><path fill="#000000" d="M225.2,217.9c-2.3,2.3-0.7,6.2,2.5,6.2c1.9,0,3.7-1.8,3.7-3.7c0-1.9-1.8-3.7-3.7-3.7C226.9,216.7,225.9,217.1,225.2,217.9z"/></g></g></g>
</svg>