<?xml version="1.0" encoding="utf-8"?>
<!-- Svg Vector Icons : http://www.onlinewebfonts.com/icon -->
<!DOCTYPE svg PUBLIC "-//W3C//DTD SVG 1.1//EN" "http://www.w3.org/Graphics/SVG/1.1/DTD/svg11.dtd">
<svg version="1.1" xmlns="http://www.w3.org/2000/svg" xmlns:xlink="http://www.w3.org/1999/xlink" x="0px" y="0px" viewBox="0 0 256 256" enable-background="new 0 0 256 256" xml:space="preserve">
<metadata> Svg Vector Icons : http://www.onlinewebfonts.com/icon </metadata>
<g><g><g><path d="M116.7,10.3C88.9,13.2,63.9,25,44.4,44.5c-18.7,18.7-30,41.7-33.9,69c-0.8,5.5-0.8,23.6,0,29.1c3.9,27.4,15.1,50.3,33.9,69c18.8,18.7,41.6,29.9,69,33.9c5.4,0.8,23.6,0.8,29.1,0c19-2.7,35.2-8.7,50.6-18.8c12.6-8.2,25.3-21,33.5-33.5c10.1-15.4,16-31.5,18.8-50.6c0.8-5.5,0.8-23.6,0-29.1c-3.9-27.4-15.1-50.3-33.9-69c-18.3-18.3-40.6-29.5-66.9-33.5C138.8,10.1,122.6,9.6,116.7,10.3z M189.8,108.5l0.1,42.2h-42.3h-42.3v-42.3V66.1l42.2,0.1l42.1,0.1L189.8,108.5z M98,122v36h36h36v6v6h-42H86v-42V86h6h6V122z M78.6,141.4v36h36h36v6.2v6.2l-42.1-0.1l-42.2-0.1l-0.1-42.2l-0.1-42.1h6.2h6.2L78.6,141.4L78.6,141.4z"/></g></g></g>
</svg>