<?xml version="1.0" encoding="utf-8"?>
<!-- Svg Vector Icons : http://www.onlinewebfonts.com/icon -->
<svg version="1.1" xmlns="http://www.w3.org/2000/svg" xmlns:xlink="http://www.w3.org/1999/xlink" x="0px" y="0px" viewBox="0 0 256 256" enable-background="new 0 0 256 256" xml:space="preserve">
<metadata> Svg Vector Icons : http://www.onlinewebfonts.com/icon </metadata>
  <g><g><g><path d="M44.1,11c-15,2.8-26.6,12.8-32,27.8l-1.8,4.7l-0.2,82.4c-0.2,92.2-0.4,87.4,4.5,97.4c5.3,10.7,16.4,19.3,28.2,21.8c3.8,0.8,16.9,1,85,1c71.9,0,81-0.1,85.2-1c12.5-2.9,22.4-10.5,28.1-21.9c4.7-9.4,4.4-3.3,4.7-88.5l0.2-76.6l-23.9-23.9L198.2,10l-74.8,0.1C65.1,10.1,47.7,10.3,44.1,11z M51.6,58.8v34.5H114h62.4V58.8V24.3h7.6h7.7l20,20l20,20v72.2c0,78.7,0.1,75.4-3.6,81.9c-2,3.4-7.7,8.8-11.2,10.7c-6.4,3.3-5.9,3.3-88.5,3.3c-46.4,0-78.5-0.3-80.9-0.6c-11.7-1.9-20.9-10.9-23.1-22.7c-0.4-2.3-0.7-30.9-0.7-80.9c0-83,0-82.4,3.3-88.8c1.8-3.4,6.6-8.8,10.1-10.9c3.3-2.1,9-4,12.2-4l2.4-0.1L51.6,58.8L51.6,58.8z M162.7,51.9v27.6H114H65.2V51.9V24.3H114h48.8V51.9z"/><path fill="#000000" d="M125.7,122.2c-15.2,3.3-28.3,16.5-31.5,31.8c-6.2,29.5,19.9,55.6,49.4,49.4c15.5-3.3,28.6-16.4,31.9-31.9C181.6,141.9,155.3,115.8,125.7,122.2z M139.4,135.5c14.8,2.8,25,16.9,22.8,31.3c-2.5,15.1-16.7,25.7-31.3,23.4c-12.1-2-21.3-11.1-23.4-23.3c-2-11.2,4.7-23.9,15.3-28.8C129,135,133.5,134.4,139.4,135.5z"/></g></g></g>
</svg>